<svg xmlns="http://www.w3.org/2000/svg" xmlns:xlink="http://www.w3.org/1999/xlink" width="500" zoomAndPan="magnify" viewBox="0 0 375 374.999991" height="500" preserveAspectRatio="xMidYMid meet" version="1.0"><defs><g/><clipPath id="id1"><path d="M 21.089844 48 L 347.339844 48 L 347.339844 356 L 21.089844 356 Z M 21.089844 48 " clip-rule="nonzero"/></clipPath></defs><g clip-path="url(#id1)"><path fill="#ffffff" d="M 336.882812 48.09375 L 251.582031 48.09375 C 256.582031 58.089844 259.917969 69.285156 261.117188 81.214844 C 265.621094 83.265625 268.789062 87.785156 268.789062 93.070312 C 268.789062 98.53125 265.433594 103.203125 260.671875 105.148438 C 259.140625 105.765625 257.488281 106.121094 255.738281 106.121094 C 253.585938 106.121094 251.582031 105.59375 249.789062 104.679688 C 245.570312 102.515625 242.683594 98.136719 242.683594 93.070312 C 242.683594 88.492188 245.050781 84.492188 248.628906 82.160156 C 247.320312 69.59375 243.335938 57.976562 237.347656 48.09375 L 131.195312 48.09375 C 125.203125 57.988281 121.21875 69.621094 119.914062 82.203125 C 123.4375 84.542969 125.777344 88.523438 125.777344 93.070312 C 125.777344 98.136719 122.890625 102.515625 118.675781 104.679688 C 116.886719 105.59375 114.871094 106.121094 112.730469 106.121094 C 110.984375 106.121094 109.316406 105.765625 107.800781 105.148438 C 103.039062 103.203125 99.683594 98.53125 99.683594 93.070312 C 99.683594 87.753906 102.871094 83.207031 107.429688 81.171875 C 108.625 69.265625 111.945312 58.078125 116.945312 48.089844 L 31.535156 48.089844 L 21.085938 334.675781 C 21.085938 346.21875 30.441406 355.582031 41.988281 355.582031 L 326.429688 355.582031 C 337.980469 355.582031 347.347656 346.21875 347.347656 334.675781 Z M 336.882812 48.09375 " fill-opacity="1" fill-rule="nonzero"/></g><path fill="#ffffff" d="M 108.5625 90.941406 L 108.585938 91.171875 C 108.714844 93.621094 110.730469 95.542969 113.167969 95.542969 C 115.613281 95.542969 117.621094 93.625 117.753906 91.171875 L 117.78125 90.605469 C 118.066406 48.503906 147.78125 14.355469 184.273438 14.355469 C 220.824219 14.355469 250.589844 48.632812 250.761719 90.847656 L 250.792969 91.171875 C 250.914062 93.621094 252.925781 95.539062 255.371094 95.539062 C 257.816406 95.539062 259.828125 93.621094 259.964844 91.167969 L 259.984375 90.789062 C 259.726562 43.496094 225.800781 5.128906 184.273438 5.128906 C 142.703125 5.128906 108.742188 43.585938 108.566406 90.851562 Z M 108.5625 90.941406 " fill-opacity="1" fill-rule="nonzero"/><g fill="#ee4b2b" fill-opacity="1"><g transform="translate(53.607284, 279.169387)"><g><path d="M 59.90625 1.921875 C 49.507812 1.921875 39.460938 0.445312 29.765625 -2.5 C 20.066406 -5.457031 12.394531 -9.375 6.75 -14.25 L 15.40625 -33.71875 C 20.925781 -29.34375 27.703125 -25.773438 35.734375 -23.015625 C 43.765625 -20.253906 51.820312 -18.875 59.90625 -18.875 C 69.925781 -18.875 77.40625 -20.476562 82.34375 -23.6875 C 87.289062 -26.90625 89.765625 -31.144531 89.765625 -36.40625 C 89.765625 -40.257812 88.382812 -43.4375 85.625 -45.9375 C 82.863281 -48.445312 79.363281 -50.40625 75.125 -51.8125 C 70.882812 -53.226562 65.109375 -54.835938 57.796875 -56.640625 C 47.515625 -59.078125 39.195312 -61.515625 32.84375 -63.953125 C 26.488281 -66.390625 21.03125 -70.207031 16.46875 -75.40625 C 11.90625 -80.613281 9.625 -87.648438 9.625 -96.515625 C 9.625 -103.960938 11.644531 -110.734375 15.6875 -116.828125 C 19.738281 -122.929688 25.84375 -127.78125 34 -131.375 C 42.15625 -134.976562 52.140625 -136.78125 63.953125 -136.78125 C 72.171875 -136.78125 80.257812 -135.75 88.21875 -133.6875 C 96.1875 -131.632812 103.0625 -128.679688 108.84375 -124.828125 L 100.9375 -105.375 C 95.03125 -108.84375 88.863281 -111.472656 82.4375 -113.265625 C 76.019531 -115.066406 69.796875 -115.96875 63.765625 -115.96875 C 53.878906 -115.96875 46.523438 -114.296875 41.703125 -110.953125 C 36.890625 -107.617188 34.484375 -103.191406 34.484375 -97.671875 C 34.484375 -93.816406 35.863281 -90.664062 38.625 -88.21875 C 41.382812 -85.78125 44.882812 -83.851562 49.125 -82.4375 C 53.363281 -81.03125 59.144531 -79.429688 66.46875 -77.640625 C 76.476562 -75.328125 84.691406 -72.914062 91.109375 -70.40625 C 97.535156 -67.90625 103.023438 -64.085938 107.578125 -58.953125 C 112.140625 -53.816406 114.421875 -46.878906 114.421875 -38.140625 C 114.421875 -30.691406 112.398438 -23.945312 108.359375 -17.90625 C 104.316406 -11.875 98.1875 -7.0625 89.96875 -3.46875 C 81.75 0.125 71.726562 1.921875 59.90625 1.921875 Z M 59.90625 1.921875 "/></g></g></g><g fill="#ee4b2b" fill-opacity="1"><g transform="translate(174.78074, 279.169387)"><g><path d="M 113.65625 -70.125 C 121.101562 -67.6875 127.007812 -63.609375 131.375 -57.890625 C 135.75 -52.171875 137.9375 -45.078125 137.9375 -36.609375 C 137.9375 -24.921875 133.441406 -15.894531 124.453125 -9.53125 C 115.460938 -3.175781 102.359375 0 85.140625 0 L 18.109375 0 L 18.109375 -134.84375 L 81.296875 -134.84375 C 97.222656 -134.84375 109.488281 -131.726562 118.09375 -125.5 C 126.695312 -119.269531 131 -110.695312 131 -99.78125 C 131 -93.101562 129.457031 -87.195312 126.375 -82.0625 C 123.289062 -76.925781 119.050781 -72.945312 113.65625 -70.125 Z M 43.15625 -115.203125 L 43.15625 -78.015625 L 78.59375 -78.015625 C 87.332031 -78.015625 94.046875 -79.585938 98.734375 -82.734375 C 103.421875 -85.878906 105.765625 -90.472656 105.765625 -96.515625 C 105.765625 -102.679688 103.421875 -107.335938 98.734375 -110.484375 C 94.046875 -113.628906 87.332031 -115.203125 78.59375 -115.203125 Z M 83.609375 -19.65625 C 102.992188 -19.65625 112.6875 -26.140625 112.6875 -39.109375 C 112.6875 -52.078125 102.992188 -58.5625 83.609375 -58.5625 L 43.15625 -58.5625 L 43.15625 -19.65625 Z M 83.609375 -19.65625 "/></g></g></g></svg>