<svg xmlns="http://www.w3.org/2000/svg" xmlns:xlink="http://www.w3.org/1999/xlink" width="500" zoomAndPan="magnify" viewBox="0 0 375 374.999991" height="500" preserveAspectRatio="xMidYMid meet" version="1.0"><defs><clipPath id="id1"><path d="M 17.085938 49 L 360.585938 49 L 360.585938 374 L 17.085938 374 Z M 17.085938 49 " clip-rule="nonzero"/></clipPath></defs><g clip-path="url(#id1)"><path fill="#ffffff" d="M 349.574219 49.757812 L 259.761719 49.757812 C 265.03125 60.28125 268.539062 72.074219 269.804688 84.636719 C 274.542969 86.792969 277.878906 91.550781 277.878906 97.117188 C 277.878906 102.871094 274.347656 107.789062 269.335938 109.839844 C 267.722656 110.492188 265.980469 110.863281 264.140625 110.863281 C 261.875 110.863281 259.761719 110.308594 257.875 109.347656 C 253.4375 107.066406 250.394531 102.453125 250.394531 97.117188 C 250.394531 92.296875 252.886719 88.085938 256.65625 85.632812 C 255.277344 72.398438 251.078125 60.164062 244.777344 49.757812 L 133.011719 49.757812 C 126.703125 60.175781 122.507812 72.429688 121.136719 85.675781 C 124.847656 88.140625 127.308594 92.332031 127.308594 97.117188 C 127.308594 102.453125 124.269531 107.066406 119.828125 109.347656 C 117.945312 110.308594 115.824219 110.863281 113.570312 110.863281 C 111.730469 110.863281 109.976562 110.492188 108.378906 109.839844 C 103.367188 107.789062 99.832031 102.871094 99.832031 97.117188 C 99.832031 91.523438 103.191406 86.730469 107.988281 84.589844 C 109.25 72.054688 112.746094 60.269531 118.007812 49.753906 L 28.082031 49.753906 L 17.078125 351.546875 C 17.078125 363.703125 26.933594 373.5625 39.089844 373.5625 L 338.570312 373.5625 C 350.730469 373.5625 360.59375 363.703125 360.59375 351.546875 Z M 349.574219 49.757812 " fill-opacity="1" fill-rule="nonzero"/></g><path fill="#ffffff" d="M 109.183594 94.878906 L 109.207031 95.121094 C 109.34375 97.699219 111.464844 99.722656 114.03125 99.722656 C 116.605469 99.722656 118.722656 97.703125 118.863281 95.121094 L 118.890625 94.523438 C 119.191406 50.1875 150.476562 14.226562 188.894531 14.226562 C 227.382812 14.226562 258.71875 50.324219 258.902344 94.777344 L 258.933594 95.121094 C 259.0625 97.699219 261.179688 99.71875 263.753906 99.71875 C 266.328125 99.71875 268.445312 97.699219 268.589844 95.117188 L 268.609375 94.714844 C 268.335938 44.914062 232.621094 4.511719 188.894531 4.511719 C 145.125 4.511719 109.371094 45.011719 109.1875 94.78125 Z M 109.183594 94.878906 " fill-opacity="1" fill-rule="nonzero"/></svg>