<svg xmlns="http://www.w3.org/2000/svg" xmlns:xlink="http://www.w3.org/1999/xlink" width="500" zoomAndPan="magnify" viewBox="0 0 375 374.999991" height="500" preserveAspectRatio="xMidYMid meet" version="1.0"><defs><g/><clipPath id="id1"><path d="M 14.316406 47 L 360.816406 47 L 360.816406 374 L 14.316406 374 Z M 14.316406 47 " clip-rule="nonzero"/></clipPath></defs><g clip-path="url(#id1)"><path fill="#f3543b" d="M 349.710938 47.140625 L 259.117188 47.140625 C 264.429688 57.753906 267.96875 69.636719 269.246094 82.300781 C 274.027344 84.476562 277.390625 89.273438 277.390625 94.882812 C 277.390625 100.683594 273.828125 105.640625 268.769531 107.707031 C 267.148438 108.363281 265.390625 108.738281 263.53125 108.738281 C 261.246094 108.738281 259.117188 108.183594 257.214844 107.210938 C 252.734375 104.914062 249.667969 100.261719 249.667969 94.882812 C 249.667969 90.023438 252.183594 85.78125 255.984375 83.304688 C 254.589844 69.964844 250.359375 57.632812 244 47.140625 L 131.261719 47.140625 C 124.894531 57.644531 120.660156 69.996094 119.277344 83.351562 C 123.019531 85.835938 125.503906 90.058594 125.503906 94.882812 C 125.503906 100.261719 122.441406 104.914062 117.960938 107.210938 C 116.0625 108.183594 113.921875 108.738281 111.644531 108.738281 C 109.792969 108.738281 108.023438 108.363281 106.410156 107.707031 C 101.355469 105.640625 97.789062 100.683594 97.789062 94.882812 C 97.789062 89.246094 101.175781 84.414062 106.015625 82.253906 C 107.289062 69.617188 110.816406 57.738281 116.125 47.136719 L 25.410156 47.136719 L 14.3125 351.359375 C 14.3125 363.617188 24.253906 373.554688 36.515625 373.554688 L 338.613281 373.554688 C 350.878906 373.554688 360.828125 363.617188 360.828125 351.359375 Z M 349.710938 47.140625 " fill-opacity="1" fill-rule="nonzero"/></g><path fill="#f3543b" d="M 107.222656 92.625 L 107.246094 92.871094 C 107.382812 95.46875 109.523438 97.507812 112.109375 97.507812 C 114.707031 97.507812 116.84375 95.472656 116.984375 92.871094 L 117.011719 92.269531 C 117.316406 47.578125 148.875 11.324219 187.628906 11.324219 C 226.453125 11.324219 258.066406 47.714844 258.246094 92.523438 L 258.28125 92.871094 C 258.410156 95.46875 260.546875 97.503906 263.140625 97.503906 C 265.738281 97.503906 267.875 95.46875 268.019531 92.867188 L 268.039062 92.464844 C 267.765625 42.261719 231.738281 1.535156 187.628906 1.535156 C 143.480469 1.535156 107.410156 42.355469 107.226562 92.53125 Z M 107.222656 92.625 " fill-opacity="1" fill-rule="nonzero"/><g fill="#ffffff" fill-opacity="1"><g transform="translate(41.570217, 299.064219)"><g><path d="M 19.078125 -7.234375 L 19.078125 -41.359375 L 30.609375 -41.25 C 30.953125 -29.875 34.25 -21.457031 40.5 -16 C 46.757812 -10.550781 56.28125 -7.828125 69.0625 -7.828125 C 80.96875 -7.828125 90.050781 -10.1875 96.3125 -14.90625 C 102.570312 -19.625 105.703125 -26.5 105.703125 -35.53125 C 105.703125 -42.757812 103.8125 -48.3125 100.03125 -52.1875 C 96.25 -56.070312 88.269531 -59.859375 76.09375 -63.546875 L 56.3125 -69.46875 C 41.988281 -73.8125 31.898438 -79.226562 26.046875 -85.71875 C 20.191406 -92.21875 17.265625 -101.117188 17.265625 -112.421875 C 17.265625 -125.140625 21.78125 -135.007812 30.8125 -142.03125 C 39.851562 -149.0625 52.535156 -152.578125 68.859375 -152.578125 C 75.816406 -152.578125 83.441406 -151.820312 91.734375 -150.3125 C 100.035156 -148.8125 108.875 -146.625 118.25 -143.75 L 118.25 -111.828125 L 106.90625 -111.828125 C 105.769531 -122.398438 102.238281 -130.046875 96.3125 -134.765625 C 90.394531 -139.484375 81.378906 -141.84375 69.265625 -141.84375 C 58.691406 -141.84375 50.644531 -139.679688 45.125 -135.359375 C 39.601562 -131.046875 36.84375 -124.773438 36.84375 -116.546875 C 36.84375 -109.378906 38.914062 -103.753906 43.0625 -99.671875 C 47.207031 -95.585938 56.007812 -91.539062 69.46875 -87.53125 L 88.03125 -82.015625 C 101.613281 -77.929688 111.300781 -72.726562 117.09375 -66.40625 C 122.882812 -60.082031 125.78125 -51.597656 125.78125 -40.953125 C 125.78125 -26.429688 121.128906 -15.488281 111.828125 -8.125 C 102.523438 -0.769531 88.671875 2.90625 70.265625 2.90625 C 62.035156 2.90625 53.65625 2.066406 45.125 0.390625 C 36.59375 -1.273438 27.910156 -3.816406 19.078125 -7.234375 Z M 19.078125 -7.234375 "/></g></g></g><g fill="#ffffff" fill-opacity="1"><g transform="translate(182.382259, 299.064219)"><g><path d="M 50.796875 -10.640625 L 80.8125 -10.640625 C 92.851562 -10.640625 101.648438 -13.25 107.203125 -18.46875 C 112.753906 -23.6875 115.53125 -31.984375 115.53125 -43.359375 C 115.53125 -54.671875 112.769531 -62.921875 107.25 -68.109375 C 101.726562 -73.296875 92.914062 -75.890625 80.8125 -75.890625 L 50.796875 -75.890625 Z M 50.796875 -86.53125 L 76.28125 -86.53125 C 87.257812 -86.53125 95.273438 -88.632812 100.328125 -92.84375 C 105.378906 -97.0625 107.90625 -103.722656 107.90625 -112.828125 C 107.90625 -121.992188 105.378906 -128.664062 100.328125 -132.84375 C 95.273438 -137.03125 87.257812 -139.125 76.28125 -139.125 L 50.796875 -139.125 Z M 11.34375 0 L 11.34375 -10.640625 L 30.421875 -10.640625 L 30.421875 -139.125 L 11.34375 -139.125 L 11.34375 -149.875 L 85.328125 -149.875 C 100.453125 -149.875 111.84375 -146.773438 119.5 -140.578125 C 127.164062 -134.390625 131 -125.140625 131 -112.828125 C 131 -103.921875 128.335938 -96.820312 123.015625 -91.53125 C 117.691406 -86.25 109.910156 -83.007812 99.671875 -81.8125 C 112.390625 -80.207031 122.046875 -76.140625 128.640625 -69.609375 C 135.234375 -63.085938 138.53125 -54.335938 138.53125 -43.359375 C 138.53125 -28.503906 133.84375 -17.5625 124.46875 -10.53125 C 115.101562 -3.507812 100.484375 0 80.609375 0 Z M 11.34375 0 "/></g></g></g></svg>