<svg xmlns="http://www.w3.org/2000/svg" xmlns:xlink="http://www.w3.org/1999/xlink" width="500" zoomAndPan="magnify" viewBox="0 0 375 374.999991" height="500" preserveAspectRatio="xMidYMid meet" version="1.0"><defs><g/><clipPath id="id1"><path d="M 42 0 L 304.414062 0 L 304.414062 375 L 42 375 Z M 42 0 " clip-rule="nonzero"/></clipPath></defs><g clip-path="url(#id1)"><path fill="#f3543b" d="M 73.402344 380.511719 C 66.09375 379.1875 64.359375 377.699219 63.058594 375.785156 C 62.785156 375.382812 62.835938 375.875 62.25 374.089844 C 61.558594 371.988281 60.859375 369.46875 60.105469 364.515625 C 59.371094 359.695312 58.316406 352.851562 57.753906 349.3125 C 55.011719 336.503906 56.636719 341.808594 55.011719 336.503906 C 53.675781 331.398438 51.9375 316.535156 51.25 304.34375 C 50.902344 298.199219 50.519531 293.007812 50.398438 292.804688 C 50.277344 292.601562 49.863281 285.242188 49.476562 276.457031 C 49.085938 267.550781 47.628906 248.957031 46.1875 234.441406 C 42.023438 192.523438 41.898438 187.816406 44.050781 154.550781 L 44.433594 148.632812 L 52.710938 148.4375 C 61.359375 148.226562 70.964844 149.125 73.996094 150.425781 C 77.59375 151.96875 78.882812 151.9375 83.960938 150.175781 C 90.492188 147.910156 95.960938 147.109375 105.328125 147.042969 C 109.554688 147.011719 115.054688 146.960938 117.546875 146.925781 L 122.082031 146.863281 L 122.464844 144.789062 C 122.675781 143.652344 123.066406 139.253906 123.335938 135.023438 C 123.855469 126.816406 127.085938 99.308594 128.035156 95 C 128.347656 93.578125 129.035156 89.488281 129.566406 85.90625 C 130.648438 78.597656 133.335938 66.121094 135.179688 59.871094 C 135.851562 57.59375 137.042969 52.734375 137.832031 49.074219 C 140.949219 34.589844 146.378906 21.605469 152.984375 12.835938 C 158.203125 5.910156 163.222656 2.503906 170.40625 1.023438 C 173.480469 0.386719 174.550781 0.417969 177.796875 1.242188 C 189.839844 4.296875 194.53125 10.253906 201.910156 31.867188 C 203.835938 37.503906 206.917969 47.308594 208.761719 53.65625 C 210.605469 60.003906 212.351562 65.730469 212.640625 66.378906 C 213.296875 67.847656 220.636719 101.0625 221.472656 106.324219 C 221.476562 115.15625 222.058594 115.40625 223.238281 126.605469 C 224.371094 139.84375 224.929688 143.15625 226.261719 144.492188 C 227.371094 145.605469 228.46875 145.695312 244.714844 146.007812 C 262.308594 146.351562 264.675781 146.652344 267.230469 148.863281 C 267.832031 149.386719 269.402344 150.304688 270.480469 149.816406 L 274.410156 148.042969 C 275.71875 147.449219 276.183594 147.773438 277.070312 147.636719 C 278.53125 147.414062 285.277344 147.039062 292.054688 146.800781 L 304.378906 146.371094 L 304.074219 150.164062 C 303.628906 155.722656 302.636719 181.507812 301.875 207.21875 C 301.507812 219.585938 300.964844 230.902344 300.671875 232.367188 C 300.375 233.832031 299.738281 240.753906 299.25 247.753906 C 298.761719 254.75 297.960938 262.738281 297.472656 265.503906 C 296.886719 278.855469 297.664062 288.171875 296.246094 301.308594 C 296.066406 302.933594 295.6875 307.460938 295.402344 311.367188 C 295.117188 315.273438 294.597656 321.128906 294.246094 324.386719 C 293.894531 327.640625 293.675781 333.882812 292.914062 338.144531 C 291.511719 345.984375 291.601562 345.511719 291.511719 345.984375 C 291.21875 347.515625 290.0625 354.269531 290.0625 354.269531 C 286.761719 373.140625 288.851562 368.214844 286.042969 373 C 283.332031 377.617188 282.738281 378.074219 277.570312 379.515625 C 274.054688 380.492188 269.375 380.542969 203.761719 380.304688 C 105.46875 379.949219 82.828125 379.960938 78.433594 380.367188 C 76.320312 380.5625 74.058594 380.628906 73.40625 380.507812 Z M 173.882812 145.097656 C 188.179688 144.933594 200.78125 144.625 201.886719 144.417969 L 203.898438 144.042969 L 203.496094 139.832031 C 203.011719 134.742188 200.980469 119.796875 198.214844 101 C 197.089844 93.351562 195.480469 80.703125 194.636719 72.890625 C 189.628906 26.539062 189.210938 23.875 185.785156 16.636719 C 183.261719 11.300781 183.167969 11.195312 179.503906 9.363281 C 173.117188 6.167969 169.269531 6.984375 163.539062 12.742188 C 159.207031 17.09375 156.78125 20.839844 155.539062 25.101562 C 155.085938 26.652344 153.945312 30.183594 152.996094 32.949219 C 151.671875 36.824219 151.117188 39.949219 150.578125 46.558594 C 150.191406 51.277344 149.363281 59.132812 148.738281 64.011719 C 147.515625 73.542969 146.941406 82.628906 145.546875 114.609375 C 145.058594 125.839844 144.515625 137.304688 144.339844 140.09375 C 144.167969 142.878906 144.214844 145.351562 144.453125 145.585938 C 144.6875 145.824219 145.558594 145.875 146.386719 145.707031 C 147.214844 145.539062 159.589844 145.265625 173.882812 145.097656 Z M 173.882812 145.097656 " fill-opacity="1" fill-rule="nonzero"/></g><g fill="#ffffff" fill-opacity="1"><g transform="translate(54.481124, 322.672768)"><g><path d="M 15.515625 -5.875 L 15.515625 -33.640625 L 24.90625 -33.5625 C 25.175781 -24.3125 27.859375 -17.46875 32.953125 -13.03125 C 38.046875 -8.59375 45.789062 -6.375 56.1875 -6.375 C 65.875 -6.375 73.265625 -8.289062 78.359375 -12.125 C 83.453125 -15.96875 86 -21.5625 86 -28.90625 C 86 -34.789062 84.457031 -39.3125 81.375 -42.46875 C 78.300781 -45.625 71.8125 -48.695312 61.90625 -51.6875 L 45.8125 -56.515625 C 34.164062 -60.054688 25.957031 -64.460938 21.1875 -69.734375 C 16.425781 -75.015625 14.046875 -82.257812 14.046875 -91.46875 C 14.046875 -101.8125 17.71875 -109.835938 25.0625 -115.546875 C 32.414062 -121.265625 42.734375 -124.125 56.015625 -124.125 C 61.679688 -124.125 67.890625 -123.507812 74.640625 -122.28125 C 81.390625 -121.0625 88.578125 -119.28125 96.203125 -116.9375 L 96.203125 -90.96875 L 86.96875 -90.96875 C 86.039062 -99.570312 83.164062 -105.789062 78.34375 -109.625 C 73.53125 -113.46875 66.195312 -115.390625 56.34375 -115.390625 C 47.75 -115.390625 41.203125 -113.632812 36.703125 -110.125 C 32.210938 -106.613281 29.96875 -101.507812 29.96875 -94.8125 C 29.96875 -88.988281 31.65625 -84.414062 35.03125 -81.09375 C 38.40625 -77.769531 45.566406 -74.476562 56.515625 -71.21875 L 71.625 -66.71875 C 82.675781 -63.394531 90.554688 -59.160156 95.265625 -54.015625 C 99.972656 -48.867188 102.328125 -41.96875 102.328125 -33.3125 C 102.328125 -21.5 98.539062 -12.597656 90.96875 -6.609375 C 83.40625 -0.617188 72.140625 2.375 57.171875 2.375 C 50.472656 2.375 43.648438 1.691406 36.703125 0.328125 C 29.765625 -1.035156 22.703125 -3.101562 15.515625 -5.875 Z M 15.515625 -5.875 "/></g></g></g><g fill="#ffffff" fill-opacity="1"><g transform="translate(169.033387, 322.672768)"><g><path d="M 41.328125 -8.65625 L 65.734375 -8.65625 C 75.535156 -8.65625 82.695312 -10.773438 87.21875 -15.015625 C 91.738281 -19.265625 94 -26.019531 94 -35.28125 C 94 -44.476562 91.75 -51.1875 87.25 -55.40625 C 82.757812 -59.625 75.585938 -61.734375 65.734375 -61.734375 L 41.328125 -61.734375 Z M 41.328125 -70.390625 L 62.0625 -70.390625 C 70.988281 -70.390625 77.507812 -72.101562 81.625 -75.53125 C 85.738281 -78.96875 87.796875 -84.390625 87.796875 -91.796875 C 87.796875 -99.253906 85.738281 -104.679688 81.625 -108.078125 C 77.507812 -111.484375 70.988281 -113.1875 62.0625 -113.1875 L 41.328125 -113.1875 Z M 9.234375 0 L 9.234375 -8.65625 L 24.75 -8.65625 L 24.75 -113.1875 L 9.234375 -113.1875 L 9.234375 -121.921875 L 69.421875 -121.921875 C 81.722656 -121.921875 90.988281 -119.398438 97.21875 -114.359375 C 103.457031 -109.328125 106.578125 -101.804688 106.578125 -91.796875 C 106.578125 -84.554688 104.410156 -78.785156 100.078125 -74.484375 C 95.753906 -70.179688 89.425781 -67.539062 81.09375 -66.5625 C 91.4375 -65.25 99.289062 -61.9375 104.65625 -56.625 C 110.019531 -51.320312 112.703125 -44.207031 112.703125 -35.28125 C 112.703125 -23.195312 108.890625 -14.296875 101.265625 -8.578125 C 93.640625 -2.859375 81.742188 0 65.578125 0 Z M 9.234375 0 "/></g></g></g></svg>